# xmcd
#
# Track frame offsets: 
#        150
#        17265
#        33865
#        50487
#        65172
#        82920
#        95432
#        113487
#        129945
#        144685
#        160590
#        182120
#        195767
#        212875
#        229602
#        238225
#
# Disc length: 3405 seconds
#
# Revision: 1
# Processed by: cddbd v1.5.2PL0 Copyright (c) Steve Scherf et al.
# Submitted via: ExactAudioCopy v0.95a5
#
DISCID=c70d4b10
DTITLE=黎明 - 黎明32首国粤语精选越唱越耀眼-CD2
DYEAR=2000
DGENRE=Pop
TTITLE0=爱比我重要
TTITLE1=心在跳
TTITLE2=不怕你不爱我
TTITLE3=从过去走出来
TTITLE4=我把自己交给你
TTITLE5=提提我
TTITLE6=及时拥抱
TTITLE7=Be My Girl
TTITLE8=非我莫属
TTITLE9=心里有数
TTITLE10=等不到天昏地暗
TTITLE11=You Are My Friend
TTITLE12=爱比我重要(Instrumental)
TTITLE13=从过去走出来(Instrumental)
TTITLE14=不怕你不爱我(Instrumental)
TTITLE15=我把自己交给你(Instrumental)
EXTD=YEAR: 2000
EXTT0=
EXTT1=
EXTT2=
EXTT3=
EXTT4=
EXTT5=
EXTT6=
EXTT7=
EXTT8=
EXTT9=
EXTT10=
EXTT11=
EXTT12=
EXTT13=
EXTT14=
EXTT15=
PLAYORDER=
